# Wavefront OBJ file made by Mineways version 9.17, http://mineways.com
# World: New World
# Terrain file name: C:\Users\kevin\Downloads\minewaysV1000\mineways\terrainExt.png
# Color scheme: Standard
# Mon Jun 13 16:00:12 2022

# Selection location min to max: 46, -63, -45 to 46, 319, -45
#   Non-empty selection location min to max: 46, -63, -45 to 46, -63, -45

# Set render type: Wavefront OBJ relative indices
# Units for the model vertex data itself: meters

# 8 vertices, 6 faces (12 triangles), 0 blocks, 1 billboards/bits
# block dimensions: X=2 by Y=2 (height) by Z=2 blocks
# Elevation shading: no
# Lighting: no
# Transparent water: no
# Map grid: no
# File type: Export all textures to three large images
# Texture output RGB: YES
# Texture output A: YES
# Texture output RGBA: YES
# OBJ relative coordinates
# Make groups objects: no
# Export separate objects: YES
# Individual blocks: no
#   Material per family: YES
#   Split by block type: YES
# G3D full material: YES
# Make Z the up direction instead of Y: no
# Create composite overlay faces: no
# Center model: YES
# Export lesser blocks: YES
# Fatten lesser blocks: no
# Create block faces at the borders: YES
# Make tree leaves solid: no
# Use biomes: no
# Rotate model 0.000000 degrees
# Scale model by making each block 1000 mm high
# Data operation options:
#   Fill air bubbles: no; Seal off entrances: no; Fill in isolated tunnels in base of model: no
#   Connect parts sharing an edge: no; Connect corner tips: no; Weld all shared edges: no
#   Delete floating objects: trees and parts smaller than 16 blocks: no
#   Hollow out bottom of model, making the walls 1000 mm thick: no; Superhollow: no
# Melt snow blocks: no
#   Debug: show separate parts as colors: no
#   Debug: show weld blocks in bright colors: no

# Full world path: C:\Users\kevin\AppData\Roaming\.minecraft\saves\New World
# Full terrainExt.png path: C:\Users\kevin\Downloads\minewaysV1000\mineways\terrainExt.png
# Full current path: C:\Users\kevin\Downloads\minewaysV1000\mineways

mtllib Mineways2Skfb.mtl

o New_World__46_-63_-45_to_46_319_-45
vn -1 0 0
vn 0 -1 0
vn 0 0 -1
vn 1 0 0
vn 0 1 0
vn 0 0 1
vn -0.707107 0 -0.707107
vn -0.707107 0 0.707107
vn 0.707107 0 -0.707107
vn 0.707107 0 0.707107
vn -0.707107 -0.707107 0
vn 0 -0.707107 -0.707107
vn 0.707107 -0.707107 0
vn 0 -0.707107 0.707107
vn -0.707107 0.707107 0
vn 0 0.707107 -0.707107
vn 0.707107 0.707107 0
vn 0 0.707107 0.707107
vn -0.92388 0 -0.382683
vn -0.92388 0 0.382683
vn 0.92388 0 -0.382683
vn 0.92388 0 0.382683
vn -0.382683 0 -0.92388
vn -0.382683 0 0.92388
vn 0.382683 0 -0.92388
vn 0.382683 0 0.92388
vn -0.397273 0.9177 0
vn 0.397273 -0.9177 0
vn 0.397273 0.9177 0
vn -0.397273 -0.9177 0
vn 0 0.9177 -0.397273
vn 0 -0.9177 0.397273
vn 0 0.9177 0.397273
vn 0 -0.9177 -0.397273
vn -0.440932 0.897541 0
vn 0.440932 -0.897541 0
vn 0.440932 0.897541 0
vn -0.440932 -0.897541 0
vn 0 0.897541 -0.440932
vn 0 -0.897541 0.440932
vn 0 0.897541 0.440932
vn 0 -0.897541 -0.440932
# oak_planks
vt 0.077148438 0.983398438
vt 0.081054688 0.983398438
vt 0.081054688 0.999023438
vt 0.077148438 0.999023438
vt 0.077148438 0.989257812
vt 0.081054688 0.989257812
vt 0.081054688 0.993164062
vt 0.077148438 0.993164062
v 0.1875 0 0.1875
v 0.1875 0 0.3125
v 0.1875 0.5 0.1875
v 0.1875 0.5 0.3125
v 0.3125 0 0.1875
v 0.3125 0 0.3125
v 0.3125 0.5 0.1875
v 0.3125 0.5 0.3125

g Fence
usemtl Fence
f -6/-5/-42 -8/-8/-42 -7/-7/-42 -5/-6/-42
f -7/-4/-41 -8/-1/-41 -4/-2/-41 -3/-3/-41
f -2/-5/-40 -4/-8/-40 -8/-7/-40 -6/-6/-40
f -2/-6/-39 -1/-5/-39 -3/-8/-39 -4/-7/-39
f -2/-2/-38 -6/-1/-38 -5/-4/-38 -1/-3/-38
f -1/-6/-37 -5/-5/-37 -7/-8/-37 -3/-7/-37
