# Wavefront OBJ file made by Mineways version 9.17, http://mineways.com
# World: New World
# Terrain file name: C:\Users\kevin\Downloads\minewaysV1000\mineways\terrainExt.png
# Color scheme: Standard
# Thu Jun 16 09:53:07 2022

# Selection location min to max: 32, -62, -59 to 41, 319, -49
#   Non-empty selection location min to max: 32, -62, -59 to 41, -62, -49

# Set render type: Wavefront OBJ relative indices
# Units for the model vertex data itself: meters

# 264 vertices, 262 faces (524 triangles), 110 blocks, 0 billboards/bits
# block dimensions: X=10 by Y=1 (height) by Z=11 blocks
# Elevation shading: no
# Lighting: no
# Transparent water: no
# Map grid: no
# File type: Export all textures to three large images
# Texture output RGB: YES
# Texture output A: YES
# Texture output RGBA: YES
# OBJ relative coordinates
# Make groups objects: no
# Export separate objects: YES
# Individual blocks: no
#   Material per family: YES
#   Split by block type: YES
# G3D full material: YES
# Make Z the up direction instead of Y: no
# Create composite overlay faces: no
# Center model: YES
# Export lesser blocks: YES
# Fatten lesser blocks: no
# Create block faces at the borders: YES
# Make tree leaves solid: no
# Use biomes: no
# Rotate model 0.000000 degrees
# Scale model by making each block 1000 mm high
# Data operation options:
#   Fill air bubbles: no; Seal off entrances: no; Fill in isolated tunnels in base of model: no
#   Connect parts sharing an edge: no; Connect corner tips: no; Weld all shared edges: no
#   Delete floating objects: trees and parts smaller than 16 blocks: no
#   Hollow out bottom of model, making the walls 1000 mm thick: no; Superhollow: no
# Melt snow blocks: no
#   Debug: show separate parts as colors: no
#   Debug: show weld blocks in bright colors: no

# Full world path: C:\Users\kevin\AppData\Roaming\.minecraft\saves\New World
# Full terrainExt.png path: C:\Users\kevin\Downloads\minewaysV1000\mineways\terrainExt.png
# Full current path: C:\Users\kevin\Downloads\minewaysV1000\mineways

mtllib Mineways2Skfb.mtl

o New_World__32_-62_-59_to_41_319_-49
vn -1 0 0
vn 0 -1 0
vn 0 0 -1
vn 1 0 0
vn 0 1 0
vn 0 0 1
vn -0.707107 0 -0.707107
vn -0.707107 0 0.707107
vn 0.707107 0 -0.707107
vn 0.707107 0 0.707107
vn -0.707107 -0.707107 0
vn 0 -0.707107 -0.707107
vn 0.707107 -0.707107 0
vn 0 -0.707107 0.707107
vn -0.707107 0.707107 0
vn 0 0.707107 -0.707107
vn 0.707107 0.707107 0
vn 0 0.707107 0.707107
vn -0.92388 0 -0.382683
vn -0.92388 0 0.382683
vn 0.92388 0 -0.382683
vn 0.92388 0 0.382683
vn -0.382683 0 -0.92388
vn -0.382683 0 0.92388
vn 0.382683 0 -0.92388
vn 0.382683 0 0.92388
vn -0.397273 0.9177 0
vn 0.397273 -0.9177 0
vn 0.397273 0.9177 0
vn -0.397273 -0.9177 0
vn 0 0.9177 -0.397273
vn 0 -0.9177 0.397273
vn 0 0.9177 0.397273
vn 0 -0.9177 -0.397273
vn -0.440932 0.897541 0
vn 0.440932 -0.897541 0
vn 0.440932 0.897541 0
vn -0.440932 -0.897541 0
vn 0 0.897541 -0.440932
vn 0 -0.897541 0.440932
vn 0 0.897541 0.440932
vn 0 -0.897541 -0.440932
# grass_block_side
vt 0.053710938 0.983398438
vt 0.069335938 0.983398438
vt 0.069335938 0.999023438
vt 0.053710938 0.999023438
# dirt
vt 0.036132812 0.983398438
vt 0.051757812 0.983398438
vt 0.051757812 0.999023438
vt 0.036132812 0.999023438
# grass_block_top
vt 0.000976562 0.983398438
vt 0.016601562 0.983398438
vt 0.016601562 0.999023438
vt 0.000976562 0.999023438
v -5 0 -5
v -5 0 -4
v -5 1 -4
v -5 1 -5
v -4 0 -4
v -4 0 -5
v -4 1 -5
v -4 1 -4
v -5 0 -3
v -5 1 -3
v -4 0 -3
v -4 1 -3
v -5 0 -2
v -5 1 -2
v -4 0 -2
v -4 1 -2
v -5 0 -1
v -5 1 -1
v -4 0 -1
v -4 1 -1
v -5 0 0
v -5 1 0
v -4 0 0
v -4 1 0
v -5 0 1
v -5 1 1
v -4 0 1
v -4 1 1
v -5 0 2
v -5 1 2
v -4 0 2
v -4 1 2
v -5 0 3
v -5 1 3
v -4 0 3
v -4 1 3
v -5 0 4
v -5 1 4
v -4 0 4
v -4 1 4
v -5 0 5
v -5 1 5
v -4 0 5
v -4 1 5
v -5 0 6
v -5 1 6
v -4 0 6
v -4 1 6
v -3 0 -4
v -3 0 -5
v -3 1 -5
v -3 1 -4
v -3 0 -3
v -3 1 -3
v -3 0 -2
v -3 1 -2
v -3 0 -1
v -3 1 -1
v -3 0 0
v -3 1 0
v -3 0 1
v -3 1 1
v -3 0 2
v -3 1 2
v -3 0 3
v -3 1 3
v -3 0 4
v -3 1 4
v -3 0 5
v -3 1 5
v -3 0 6
v -3 1 6
v -2 0 -4
v -2 0 -5
v -2 1 -5
v -2 1 -4
v -2 0 -3
v -2 1 -3
v -2 0 -2
v -2 1 -2
v -2 0 -1
v -2 1 -1
v -2 0 0
v -2 1 0
v -2 0 1
v -2 1 1
v -2 0 2
v -2 1 2
v -2 0 3
v -2 1 3
v -2 0 4
v -2 1 4
v -2 0 5
v -2 1 5
v -2 0 6
v -2 1 6
v -1 0 -4
v -1 0 -5
v -1 1 -5
v -1 1 -4
v -1 0 -3
v -1 1 -3
v -1 0 -2
v -1 1 -2
v -1 0 -1
v -1 1 -1
v -1 0 0
v -1 1 0
v -1 0 1
v -1 1 1
v -1 0 2
v -1 1 2
v -1 0 3
v -1 1 3
v -1 0 4
v -1 1 4
v -1 0 5
v -1 1 5
v -1 0 6
v -1 1 6
v 0 0 -4
v 0 0 -5
v 0 1 -5
v 0 1 -4
v 0 0 -3
v 0 1 -3
v 0 0 -2
v 0 1 -2
v 0 0 -1
v 0 1 -1
v 0 0 0
v 0 1 0
v 0 0 1
v 0 1 1
v 0 0 2
v 0 1 2
v 0 0 3
v 0 1 3
v 0 0 4
v 0 1 4
v 0 0 5
v 0 1 5
v 0 0 6
v 0 1 6
v 1 0 -4
v 1 0 -5
v 1 1 -5
v 1 1 -4
v 1 0 -3
v 1 1 -3
v 1 0 -2
v 1 1 -2
v 1 0 -1
v 1 1 -1
v 1 0 0
v 1 1 0
v 1 0 1
v 1 1 1
v 1 0 2
v 1 1 2
v 1 0 3
v 1 1 3
v 1 0 4
v 1 1 4
v 1 0 5
v 1 1 5
v 1 0 6
v 1 1 6
v 2 0 -4
v 2 0 -5
v 2 1 -5
v 2 1 -4
v 2 0 -3
v 2 1 -3
v 2 0 -2
v 2 1 -2
v 2 0 -1
v 2 1 -1
v 2 0 0
v 2 1 0
v 2 0 1
v 2 1 1
v 2 0 2
v 2 1 2
v 2 0 3
v 2 1 3
v 2 0 4
v 2 1 4
v 2 0 5
v 2 1 5
v 2 0 6
v 2 1 6
v 3 0 -4
v 3 0 -5
v 3 1 -5
v 3 1 -4
v 3 0 -3
v 3 1 -3
v 3 0 -2
v 3 1 -2
v 3 0 -1
v 3 1 -1
v 3 0 0
v 3 1 0
v 3 0 1
v 3 1 1
v 3 0 2
v 3 1 2
v 3 0 3
v 3 1 3
v 3 0 4
v 3 1 4
v 3 0 5
v 3 1 5
v 3 0 6
v 3 1 6
v 4 0 -4
v 4 0 -5
v 4 1 -5
v 4 1 -4
v 4 0 -3
v 4 1 -3
v 4 0 -2
v 4 1 -2
v 4 0 -1
v 4 1 -1
v 4 0 0
v 4 1 0
v 4 0 1
v 4 1 1
v 4 0 2
v 4 1 2
v 4 0 3
v 4 1 3
v 4 0 4
v 4 1 4
v 4 0 5
v 4 1 5
v 4 0 6
v 4 1 6
v 5 0 -4
v 5 0 -5
v 5 1 -5
v 5 1 -4
v 5 0 -3
v 5 1 -3
v 5 0 -2
v 5 1 -2
v 5 0 -1
v 5 1 -1
v 5 0 0
v 5 1 0
v 5 0 1
v 5 1 1
v 5 0 2
v 5 1 2
v 5 0 3
v 5 1 3
v 5 0 4
v 5 1 4
v 5 0 5
v 5 1 5
v 5 0 6
v 5 1 6

g Grass_Block
usemtl Grass_Block
f -263/-11/-42 -262/-10/-42 -261/-9/-42 -264/-12/-42
f -263/-6/-41 -264/-7/-41 -259/-8/-41 -260/-5/-41
f -264/-11/-40 -261/-10/-40 -258/-9/-40 -259/-12/-40
f -262/-2/-38 -257/-1/-38 -258/-4/-38 -261/-3/-38
f -256/-11/-42 -255/-10/-42 -262/-9/-42 -263/-12/-42
f -256/-8/-41 -263/-5/-41 -260/-6/-41 -254/-7/-41
f -255/-4/-38 -253/-3/-38 -257/-2/-38 -262/-1/-38
f -252/-11/-42 -251/-10/-42 -255/-9/-42 -256/-12/-42
f -252/-7/-41 -256/-8/-41 -254/-5/-41 -250/-6/-41
f -251/-3/-38 -249/-2/-38 -253/-1/-38 -255/-4/-38
f -248/-11/-42 -247/-10/-42 -251/-9/-42 -252/-12/-42
f -248/-6/-41 -252/-7/-41 -250/-8/-41 -246/-5/-41
f -247/-2/-38 -245/-1/-38 -249/-4/-38 -251/-3/-38
f -244/-11/-42 -243/-10/-42 -247/-9/-42 -248/-12/-42
f -244/-6/-41 -248/-7/-41 -246/-8/-41 -242/-5/-41
f -243/-2/-38 -241/-1/-38 -245/-4/-38 -247/-3/-38
f -240/-11/-42 -239/-10/-42 -243/-9/-42 -244/-12/-42
f -240/-8/-41 -244/-5/-41 -242/-6/-41 -238/-7/-41
f -239/-4/-38 -237/-3/-38 -241/-2/-38 -243/-1/-38
f -236/-11/-42 -235/-10/-42 -239/-9/-42 -240/-12/-42
f -236/-7/-41 -240/-8/-41 -238/-5/-41 -234/-6/-41
f -235/-3/-38 -233/-2/-38 -237/-1/-38 -239/-4/-38
f -232/-11/-42 -231/-10/-42 -235/-9/-42 -236/-12/-42
f -232/-7/-41 -236/-8/-41 -234/-5/-41 -230/-6/-41
f -231/-3/-38 -229/-2/-38 -233/-1/-38 -235/-4/-38
f -228/-11/-42 -227/-10/-42 -231/-9/-42 -232/-12/-42
f -228/-7/-41 -232/-8/-41 -230/-5/-41 -226/-6/-41
f -227/-3/-38 -225/-2/-38 -229/-1/-38 -231/-4/-38
f -224/-11/-42 -223/-10/-42 -227/-9/-42 -228/-12/-42
f -224/-5/-41 -228/-6/-41 -226/-7/-41 -222/-8/-41
f -223/-1/-38 -221/-4/-38 -225/-3/-38 -227/-2/-38
f -220/-11/-42 -219/-10/-42 -223/-9/-42 -224/-12/-42
f -220/-6/-41 -224/-7/-41 -222/-8/-41 -218/-5/-41
f -219/-2/-38 -217/-1/-38 -221/-4/-38 -223/-3/-38
f -220/-12/-37 -218/-11/-37 -217/-10/-37 -219/-9/-37
f -260/-8/-41 -259/-5/-41 -215/-6/-41 -216/-7/-41
f -259/-11/-40 -258/-10/-40 -214/-9/-40 -215/-12/-40
f -257/-4/-38 -213/-3/-38 -214/-2/-38 -258/-1/-38
f -254/-5/-41 -260/-6/-41 -216/-7/-41 -212/-8/-41
f -253/-1/-38 -211/-4/-38 -213/-3/-38 -257/-2/-38
f -250/-6/-41 -254/-7/-41 -212/-8/-41 -210/-5/-41
f -249/-2/-38 -209/-1/-38 -211/-4/-38 -253/-3/-38
f -246/-7/-41 -250/-8/-41 -210/-5/-41 -208/-6/-41
f -245/-3/-38 -207/-2/-38 -209/-1/-38 -249/-4/-38
f -242/-5/-41 -246/-6/-41 -208/-7/-41 -206/-8/-41
f -241/-1/-38 -205/-4/-38 -207/-3/-38 -245/-2/-38
f -238/-5/-41 -242/-6/-41 -206/-7/-41 -204/-8/-41
f -237/-1/-38 -203/-4/-38 -205/-3/-38 -241/-2/-38
f -234/-8/-41 -238/-5/-41 -204/-6/-41 -202/-7/-41
f -233/-4/-38 -201/-3/-38 -203/-2/-38 -237/-1/-38
f -230/-7/-41 -234/-8/-41 -202/-5/-41 -200/-6/-41
f -229/-3/-38 -199/-2/-38 -201/-1/-38 -233/-4/-38
f -226/-7/-41 -230/-8/-41 -200/-5/-41 -198/-6/-41
f -225/-3/-38 -197/-2/-38 -199/-1/-38 -229/-4/-38
f -222/-8/-41 -226/-5/-41 -198/-6/-41 -196/-7/-41
f -221/-4/-38 -195/-3/-38 -197/-2/-38 -225/-1/-38
f -218/-5/-41 -222/-6/-41 -196/-7/-41 -194/-8/-41
f -217/-1/-38 -193/-4/-38 -195/-3/-38 -221/-2/-38
f -218/-12/-37 -194/-11/-37 -193/-10/-37 -217/-9/-37
f -216/-6/-41 -215/-7/-41 -191/-8/-41 -192/-5/-41
f -215/-11/-40 -214/-10/-40 -190/-9/-40 -191/-12/-40
f -213/-2/-38 -189/-1/-38 -190/-4/-38 -214/-3/-38
f -212/-5/-41 -216/-6/-41 -192/-7/-41 -188/-8/-41
f -211/-1/-38 -187/-4/-38 -189/-3/-38 -213/-2/-38
f -210/-5/-41 -212/-6/-41 -188/-7/-41 -186/-8/-41
f -209/-1/-38 -185/-4/-38 -187/-3/-38 -211/-2/-38
f -208/-7/-41 -210/-8/-41 -186/-5/-41 -184/-6/-41
f -207/-3/-38 -183/-2/-38 -185/-1/-38 -209/-4/-38
f -206/-8/-41 -208/-5/-41 -184/-6/-41 -182/-7/-41
f -205/-4/-38 -181/-3/-38 -183/-2/-38 -207/-1/-38
f -204/-5/-41 -206/-6/-41 -182/-7/-41 -180/-8/-41
f -203/-1/-38 -179/-4/-38 -181/-3/-38 -205/-2/-38
f -202/-8/-41 -204/-5/-41 -180/-6/-41 -178/-7/-41
f -201/-4/-38 -177/-3/-38 -179/-2/-38 -203/-1/-38
f -200/-7/-41 -202/-8/-41 -178/-5/-41 -176/-6/-41
f -199/-3/-38 -175/-2/-38 -177/-1/-38 -201/-4/-38
f -198/-7/-41 -200/-8/-41 -176/-5/-41 -174/-6/-41
f -197/-3/-38 -173/-2/-38 -175/-1/-38 -199/-4/-38
f -196/-8/-41 -198/-5/-41 -174/-6/-41 -172/-7/-41
f -195/-4/-38 -171/-3/-38 -173/-2/-38 -197/-1/-38
f -194/-7/-41 -196/-8/-41 -172/-5/-41 -170/-6/-41
f -193/-3/-38 -169/-2/-38 -171/-1/-38 -195/-4/-38
f -194/-12/-37 -170/-11/-37 -169/-10/-37 -193/-9/-37
f -192/-6/-41 -191/-7/-41 -167/-8/-41 -168/-5/-41
f -191/-11/-40 -190/-10/-40 -166/-9/-40 -167/-12/-40
f -189/-2/-38 -165/-1/-38 -166/-4/-38 -190/-3/-38
f -188/-6/-41 -192/-7/-41 -168/-8/-41 -164/-5/-41
f -187/-2/-38 -163/-1/-38 -165/-4/-38 -189/-3/-38
f -186/-6/-41 -188/-7/-41 -164/-8/-41 -162/-5/-41
f -185/-2/-38 -161/-1/-38 -163/-4/-38 -187/-3/-38
f -184/-5/-41 -186/-6/-41 -162/-7/-41 -160/-8/-41
f -183/-1/-38 -159/-4/-38 -161/-3/-38 -185/-2/-38
f -182/-6/-41 -184/-7/-41 -160/-8/-41 -158/-5/-41
f -181/-2/-38 -157/-1/-38 -159/-4/-38 -183/-3/-38
f -180/-5/-41 -182/-6/-41 -158/-7/-41 -156/-8/-41
f -179/-1/-38 -155/-4/-38 -157/-3/-38 -181/-2/-38
f -178/-5/-41 -180/-6/-41 -156/-7/-41 -154/-8/-41
f -177/-1/-38 -153/-4/-38 -155/-3/-38 -179/-2/-38
f -176/-5/-41 -178/-6/-41 -154/-7/-41 -152/-8/-41
f -175/-1/-38 -151/-4/-38 -153/-3/-38 -177/-2/-38
f -174/-5/-41 -176/-6/-41 -152/-7/-41 -150/-8/-41
f -173/-1/-38 -149/-4/-38 -151/-3/-38 -175/-2/-38
f -172/-8/-41 -174/-5/-41 -150/-6/-41 -148/-7/-41
f -171/-4/-38 -147/-3/-38 -149/-2/-38 -173/-1/-38
f -170/-5/-41 -172/-6/-41 -148/-7/-41 -146/-8/-41
f -169/-1/-38 -145/-4/-38 -147/-3/-38 -171/-2/-38
f -170/-12/-37 -146/-11/-37 -145/-10/-37 -169/-9/-37
f -168/-6/-41 -167/-7/-41 -143/-8/-41 -144/-5/-41
f -167/-11/-40 -166/-10/-40 -142/-9/-40 -143/-12/-40
f -165/-2/-38 -141/-1/-38 -142/-4/-38 -166/-3/-38
f -164/-5/-41 -168/-6/-41 -144/-7/-41 -140/-8/-41
f -163/-1/-38 -139/-4/-38 -141/-3/-38 -165/-2/-38
f -162/-7/-41 -164/-8/-41 -140/-5/-41 -138/-6/-41
f -161/-3/-38 -137/-2/-38 -139/-1/-38 -163/-4/-38
f -160/-8/-41 -162/-5/-41 -138/-6/-41 -136/-7/-41
f -159/-4/-38 -135/-3/-38 -137/-2/-38 -161/-1/-38
f -158/-5/-41 -160/-6/-41 -136/-7/-41 -134/-8/-41
f -157/-1/-38 -133/-4/-38 -135/-3/-38 -159/-2/-38
f -156/-5/-41 -158/-6/-41 -134/-7/-41 -132/-8/-41
f -155/-1/-38 -131/-4/-38 -133/-3/-38 -157/-2/-38
f -154/-5/-41 -156/-6/-41 -132/-7/-41 -130/-8/-41
f -153/-1/-38 -129/-4/-38 -131/-3/-38 -155/-2/-38
f -152/-5/-41 -154/-6/-41 -130/-7/-41 -128/-8/-41
f -151/-1/-38 -127/-4/-38 -129/-3/-38 -153/-2/-38
f -150/-5/-41 -152/-6/-41 -128/-7/-41 -126/-8/-41
f -149/-1/-38 -125/-4/-38 -127/-3/-38 -151/-2/-38
f -148/-6/-41 -150/-7/-41 -126/-8/-41 -124/-5/-41
f -147/-2/-38 -123/-1/-38 -125/-4/-38 -149/-3/-38
f -146/-7/-41 -148/-8/-41 -124/-5/-41 -122/-6/-41
f -145/-3/-38 -121/-2/-38 -123/-1/-38 -147/-4/-38
f -146/-12/-37 -122/-11/-37 -121/-10/-37 -145/-9/-37
f -144/-7/-41 -143/-8/-41 -119/-5/-41 -120/-6/-41
f -143/-11/-40 -142/-10/-40 -118/-9/-40 -119/-12/-40
f -141/-3/-38 -117/-2/-38 -118/-1/-38 -142/-4/-38
f -140/-6/-41 -144/-7/-41 -120/-8/-41 -116/-5/-41
f -139/-2/-38 -115/-1/-38 -117/-4/-38 -141/-3/-38
f -138/-8/-41 -140/-5/-41 -116/-6/-41 -114/-7/-41
f -137/-4/-38 -113/-3/-38 -115/-2/-38 -139/-1/-38
f -136/-7/-41 -138/-8/-41 -114/-5/-41 -112/-6/-41
f -135/-3/-38 -111/-2/-38 -113/-1/-38 -137/-4/-38
f -134/-7/-41 -136/-8/-41 -112/-5/-41 -110/-6/-41
f -133/-3/-38 -109/-2/-38 -111/-1/-38 -135/-4/-38
f -132/-6/-41 -134/-7/-41 -110/-8/-41 -108/-5/-41
f -131/-2/-38 -107/-1/-38 -109/-4/-38 -133/-3/-38
f -130/-5/-41 -132/-6/-41 -108/-7/-41 -106/-8/-41
f -129/-1/-38 -105/-4/-38 -107/-3/-38 -131/-2/-38
f -128/-5/-41 -130/-6/-41 -106/-7/-41 -104/-8/-41
f -127/-1/-38 -103/-4/-38 -105/-3/-38 -129/-2/-38
f -126/-6/-41 -128/-7/-41 -104/-8/-41 -102/-5/-41
f -125/-2/-38 -101/-1/-38 -103/-4/-38 -127/-3/-38
f -124/-5/-41 -126/-6/-41 -102/-7/-41 -100/-8/-41
f -123/-1/-38 -99/-4/-38 -101/-3/-38 -125/-2/-38
f -122/-7/-41 -124/-8/-41 -100/-5/-41 -98/-6/-41
f -121/-3/-38 -97/-2/-38 -99/-1/-38 -123/-4/-38
f -122/-12/-37 -98/-11/-37 -97/-10/-37 -121/-9/-37
f -120/-8/-41 -119/-5/-41 -95/-6/-41 -96/-7/-41
f -119/-11/-40 -118/-10/-40 -94/-9/-40 -95/-12/-40
f -117/-4/-38 -93/-3/-38 -94/-2/-38 -118/-1/-38
f -116/-7/-41 -120/-8/-41 -96/-5/-41 -92/-6/-41
f -115/-3/-38 -91/-2/-38 -93/-1/-38 -117/-4/-38
f -114/-5/-41 -116/-6/-41 -92/-7/-41 -90/-8/-41
f -113/-1/-38 -89/-4/-38 -91/-3/-38 -115/-2/-38
f -112/-5/-41 -114/-6/-41 -90/-7/-41 -88/-8/-41
f -111/-1/-38 -87/-4/-38 -89/-3/-38 -113/-2/-38
f -110/-6/-41 -112/-7/-41 -88/-8/-41 -86/-5/-41
f -109/-2/-38 -85/-1/-38 -87/-4/-38 -111/-3/-38
f -108/-7/-41 -110/-8/-41 -86/-5/-41 -84/-6/-41
f -107/-3/-38 -83/-2/-38 -85/-1/-38 -109/-4/-38
f -106/-5/-41 -108/-6/-41 -84/-7/-41 -82/-8/-41
f -105/-1/-38 -81/-4/-38 -83/-3/-38 -107/-2/-38
f -104/-7/-41 -106/-8/-41 -82/-5/-41 -80/-6/-41
f -103/-3/-38 -79/-2/-38 -81/-1/-38 -105/-4/-38
f -102/-5/-41 -104/-6/-41 -80/-7/-41 -78/-8/-41
f -101/-1/-38 -77/-4/-38 -79/-3/-38 -103/-2/-38
f -100/-8/-41 -102/-5/-41 -78/-6/-41 -76/-7/-41
f -99/-4/-38 -75/-3/-38 -77/-2/-38 -101/-1/-38
f -98/-7/-41 -100/-8/-41 -76/-5/-41 -74/-6/-41
f -97/-3/-38 -73/-2/-38 -75/-1/-38 -99/-4/-38
f -98/-12/-37 -74/-11/-37 -73/-10/-37 -97/-9/-37
f -96/-8/-41 -95/-5/-41 -71/-6/-41 -72/-7/-41
f -95/-11/-40 -94/-10/-40 -70/-9/-40 -71/-12/-40
f -93/-4/-38 -69/-3/-38 -70/-2/-38 -94/-1/-38
f -92/-6/-41 -96/-7/-41 -72/-8/-41 -68/-5/-41
f -91/-2/-38 -67/-1/-38 -69/-4/-38 -93/-3/-38
f -90/-8/-41 -92/-5/-41 -68/-6/-41 -66/-7/-41
f -89/-4/-38 -65/-3/-38 -67/-2/-38 -91/-1/-38
f -88/-6/-41 -90/-7/-41 -66/-8/-41 -64/-5/-41
f -87/-2/-38 -63/-1/-38 -65/-4/-38 -89/-3/-38
f -86/-5/-41 -88/-6/-41 -64/-7/-41 -62/-8/-41
f -85/-1/-38 -61/-4/-38 -63/-3/-38 -87/-2/-38
f -84/-8/-41 -86/-5/-41 -62/-6/-41 -60/-7/-41
f -83/-4/-38 -59/-3/-38 -61/-2/-38 -85/-1/-38
f -82/-7/-41 -84/-8/-41 -60/-5/-41 -58/-6/-41
f -81/-3/-38 -57/-2/-38 -59/-1/-38 -83/-4/-38
f -80/-7/-41 -82/-8/-41 -58/-5/-41 -56/-6/-41
f -79/-3/-38 -55/-2/-38 -57/-1/-38 -81/-4/-38
f -78/-8/-41 -80/-5/-41 -56/-6/-41 -54/-7/-41
f -77/-4/-38 -53/-3/-38 -55/-2/-38 -79/-1/-38
f -76/-8/-41 -78/-5/-41 -54/-6/-41 -52/-7/-41
f -75/-4/-38 -51/-3/-38 -53/-2/-38 -77/-1/-38
f -74/-5/-41 -76/-6/-41 -52/-7/-41 -50/-8/-41
f -73/-1/-38 -49/-4/-38 -51/-3/-38 -75/-2/-38
f -74/-12/-37 -50/-11/-37 -49/-10/-37 -73/-9/-37
f -72/-5/-41 -71/-6/-41 -47/-7/-41 -48/-8/-41
f -71/-11/-40 -70/-10/-40 -46/-9/-40 -47/-12/-40
f -69/-1/-38 -45/-4/-38 -46/-3/-38 -70/-2/-38
f -68/-5/-41 -72/-6/-41 -48/-7/-41 -44/-8/-41
f -67/-1/-38 -43/-4/-38 -45/-3/-38 -69/-2/-38
f -66/-6/-41 -68/-7/-41 -44/-8/-41 -42/-5/-41
f -65/-2/-38 -41/-1/-38 -43/-4/-38 -67/-3/-38
f -64/-5/-41 -66/-6/-41 -42/-7/-41 -40/-8/-41
f -63/-1/-38 -39/-4/-38 -41/-3/-38 -65/-2/-38
f -62/-6/-41 -64/-7/-41 -40/-8/-41 -38/-5/-41
f -61/-2/-38 -37/-1/-38 -39/-4/-38 -63/-3/-38
f -60/-6/-41 -62/-7/-41 -38/-8/-41 -36/-5/-41
f -59/-2/-38 -35/-1/-38 -37/-4/-38 -61/-3/-38
f -58/-6/-41 -60/-7/-41 -36/-8/-41 -34/-5/-41
f -57/-2/-38 -33/-1/-38 -35/-4/-38 -59/-3/-38
f -56/-5/-41 -58/-6/-41 -34/-7/-41 -32/-8/-41
f -55/-1/-38 -31/-4/-38 -33/-3/-38 -57/-2/-38
f -54/-6/-41 -56/-7/-41 -32/-8/-41 -30/-5/-41
f -53/-2/-38 -29/-1/-38 -31/-4/-38 -55/-3/-38
f -52/-7/-41 -54/-8/-41 -30/-5/-41 -28/-6/-41
f -51/-3/-38 -27/-2/-38 -29/-1/-38 -53/-4/-38
f -50/-8/-41 -52/-5/-41 -28/-6/-41 -26/-7/-41
f -49/-4/-38 -25/-3/-38 -27/-2/-38 -51/-1/-38
f -50/-12/-37 -26/-11/-37 -25/-10/-37 -49/-9/-37
f -48/-6/-41 -47/-7/-41 -23/-8/-41 -24/-5/-41
f -47/-11/-40 -46/-10/-40 -22/-9/-40 -23/-12/-40
f -24/-12/-39 -23/-11/-39 -22/-10/-39 -21/-9/-39
f -45/-2/-38 -21/-1/-38 -22/-4/-38 -46/-3/-38
f -44/-5/-41 -48/-6/-41 -24/-7/-41 -20/-8/-41
f -20/-12/-39 -24/-11/-39 -21/-10/-39 -19/-9/-39
f -43/-1/-38 -19/-4/-38 -21/-3/-38 -45/-2/-38
f -42/-8/-41 -44/-5/-41 -20/-6/-41 -18/-7/-41
f -18/-12/-39 -20/-11/-39 -19/-10/-39 -17/-9/-39
f -41/-4/-38 -17/-3/-38 -19/-2/-38 -43/-1/-38
f -40/-6/-41 -42/-7/-41 -18/-8/-41 -16/-5/-41
f -16/-12/-39 -18/-11/-39 -17/-10/-39 -15/-9/-39
f -39/-2/-38 -15/-1/-38 -17/-4/-38 -41/-3/-38
f -38/-8/-41 -40/-5/-41 -16/-6/-41 -14/-7/-41
f -14/-12/-39 -16/-11/-39 -15/-10/-39 -13/-9/-39
f -37/-4/-38 -13/-3/-38 -15/-2/-38 -39/-1/-38
f -36/-8/-41 -38/-5/-41 -14/-6/-41 -12/-7/-41
f -12/-12/-39 -14/-11/-39 -13/-10/-39 -11/-9/-39
f -35/-4/-38 -11/-3/-38 -13/-2/-38 -37/-1/-38
f -34/-6/-41 -36/-7/-41 -12/-8/-41 -10/-5/-41
f -10/-12/-39 -12/-11/-39 -11/-10/-39 -9/-9/-39
f -33/-2/-38 -9/-1/-38 -11/-4/-38 -35/-3/-38
f -32/-7/-41 -34/-8/-41 -10/-5/-41 -8/-6/-41
f -8/-12/-39 -10/-11/-39 -9/-10/-39 -7/-9/-39
f -31/-3/-38 -7/-2/-38 -9/-1/-38 -33/-4/-38
f -30/-7/-41 -32/-8/-41 -8/-5/-41 -6/-6/-41
f -6/-12/-39 -8/-11/-39 -7/-10/-39 -5/-9/-39
f -29/-3/-38 -5/-2/-38 -7/-1/-38 -31/-4/-38
f -28/-7/-41 -30/-8/-41 -6/-5/-41 -4/-6/-41
f -4/-12/-39 -6/-11/-39 -5/-10/-39 -3/-9/-39
f -27/-3/-38 -3/-2/-38 -5/-1/-38 -29/-4/-38
f -26/-8/-41 -28/-5/-41 -4/-6/-41 -2/-7/-41
f -2/-12/-39 -4/-11/-39 -3/-10/-39 -1/-9/-39
f -25/-4/-38 -1/-3/-38 -3/-2/-38 -27/-1/-38
f -26/-12/-37 -2/-11/-37 -1/-10/-37 -25/-9/-37
