# MagicaVoxel @ Ephtracy

# group
o 

# material
mtllib ladder.mtl
usemtl palette

# normals
vn -1 0 0
vn 1 0 0
vn 0 0 1
vn 0 0 -1
vn 0 -1 0
vn 0 1 0

# texcoords
vt 0.970703 0.5
vt 0.974609 0.5
vt 0.978516 0.5
vt 0.982422 0.5
vt 0.986328 0.5
vt 0.990234 0.5

# verts
v -0.7 0 0.1
v -0.7 0 0
v -0.7 0.1 0.1
v -0.7 0.1 0
v -0.7 0.2 0.1
v -0.7 0.2 0
v -0.7 0.4 0.1
v -0.7 0.4 0
v -0.7 0.5 0.1
v -0.7 0.5 0
v -0.7 0.6 0.1
v -0.7 0.6 0
v -0.7 0.8 0.1
v -0.7 0.8 0
v -0.7 0.9 0.1
v -0.7 0.9 0
v -0.7 1 0.1
v -0.7 1 0
v -0.7 1.2 0.1
v -0.7 1.2 0
v -0.7 1.3 0.1
v -0.7 1.3 0
v -0.7 1.4 0.1
v -0.7 1.4 0
v -0.6 0.2 0.1
v -0.6 0.2 0
v -0.6 0.3 0.1
v -0.6 0.3 0
v -0.6 0.4 0.1
v -0.6 0.4 0
v -0.6 0.6 0.1
v -0.6 0.6 0
v -0.6 0.7 0.1
v -0.6 0.7 0
v -0.6 0.8 0.1
v -0.6 0.8 0
v -0.6 1 0.1
v -0.6 1 0
v -0.6 1.1 0.1
v -0.6 1.1 0
v -0.6 1.2 0.1
v -0.6 1.2 0
v -0.6 1.4 0.1
v -0.6 1.4 0
v -0.6 1.5 0.1
v -0.6 1.5 0
v 0.4 0.2 0.1
v 0.4 0.2 0
v 0.4 0.3 0.1
v 0.4 0.3 0
v 0.4 0.4 0.1
v 0.4 0.4 0
v 0.4 0.6 0.1
v 0.4 0.6 0
v 0.4 0.7 0.1
v 0.4 0.7 0
v 0.4 0.8 0.1
v 0.4 0.8 0
v 0.4 1 0.1
v 0.4 1 0
v 0.4 1.1 0.1
v 0.4 1.1 0
v 0.4 1.2 0.1
v 0.4 1.2 0
v 0.4 1.4 0.1
v 0.4 1.4 0
v 0.4 1.5 0.1
v 0.4 1.5 0
v -0.4 0.2 0.1
v -0.4 0.2 0
v -0.4 0.3 0.1
v -0.4 0.3 0
v -0.4 0.4 0.1
v -0.4 0.4 0
v -0.4 0.6 0.1
v -0.4 0.6 0
v -0.4 0.7 0.1
v -0.4 0.7 0
v -0.4 0.8 0.1
v -0.4 0.8 0
v -0.4 1 0.1
v -0.4 1 0
v -0.4 1.1 0.1
v -0.4 1.1 0
v -0.4 1.2 0.1
v -0.4 1.2 0
v -0.4 1.4 0.1
v -0.4 1.4 0
v -0.4 1.5 0.1
v -0.4 1.5 0
v 0.6 0.2 0.1
v 0.6 0.2 0
v 0.6 0.3 0.1
v 0.6 0.3 0
v 0.6 0.4 0.1
v 0.6 0.4 0
v 0.6 0.6 0.1
v 0.6 0.6 0
v 0.6 0.7 0.1
v 0.6 0.7 0
v 0.6 0.8 0.1
v 0.6 0.8 0
v 0.6 1 0.1
v 0.6 1 0
v 0.6 1.1 0.1
v 0.6 1.1 0
v 0.6 1.2 0.1
v 0.6 1.2 0
v 0.6 1.4 0.1
v 0.6 1.4 0
v 0.6 1.5 0.1
v 0.6 1.5 0
v 0.7 0 0.1
v 0.7 0 0
v 0.7 0.1 0.1
v 0.7 0.1 0
v 0.7 0.2 0.1
v 0.7 0.2 0
v 0.7 0.4 0.1
v 0.7 0.4 0
v 0.7 0.5 0.1
v 0.7 0.5 0
v 0.7 0.6 0.1
v 0.7 0.6 0
v 0.7 0.8 0.1
v 0.7 0.8 0
v 0.7 0.9 0.1
v 0.7 0.9 0
v 0.7 1 0.1
v 0.7 1 0
v 0.7 1.2 0.1
v 0.7 1.2 0
v 0.7 1.3 0.1
v 0.7 1.3 0
v 0.7 1.4 0.1
v 0.7 1.4 0
v -0.7 0 0.1
v -0.7 0.1 0.1
v -0.7 0.2 0.1
v -0.7 0.4 0.1
v -0.7 0.5 0.1
v -0.7 0.6 0.1
v -0.7 0.8 0.1
v -0.7 0.9 0.1
v -0.7 1 0.1
v -0.7 1.2 0.1
v -0.7 1.3 0.1
v -0.7 1.4 0.1
v -0.6 0 0.1
v -0.6 0.1 0.1
v -0.6 0.2 0.1
v -0.6 0.3 0.1
v -0.6 0.4 0.1
v -0.6 0.5 0.1
v -0.6 0.6 0.1
v -0.6 0.7 0.1
v -0.6 0.8 0.1
v -0.6 0.9 0.1
v -0.6 1 0.1
v -0.6 1.1 0.1
v -0.6 1.2 0.1
v -0.6 1.3 0.1
v -0.6 1.4 0.1
v -0.6 1.5 0.1
v -0.5 0 0.1
v -0.5 0.1 0.1
v -0.5 0.2 0.1
v -0.5 0.3 0.1
v -0.5 0.4 0.1
v -0.5 0.5 0.1
v -0.5 0.6 0.1
v -0.5 0.7 0.1
v -0.5 0.8 0.1
v -0.5 0.9 0.1
v -0.5 1 0.1
v -0.5 1.1 0.1
v -0.5 1.2 0.1
v -0.5 1.3 0.1
v -0.5 1.4 0.1
v -0.5 1.5 0.1
v -0.4 0 0.1
v -0.4 0.1 0.1
v -0.4 0.2 0.1
v -0.4 0.3 0.1
v -0.4 0.4 0.1
v -0.4 0.5 0.1
v -0.4 0.6 0.1
v -0.4 0.7 0.1
v -0.4 0.8 0.1
v -0.4 0.9 0.1
v -0.4 1 0.1
v -0.4 1.1 0.1
v -0.4 1.2 0.1
v -0.4 1.3 0.1
v -0.4 1.4 0.1
v -0.4 1.5 0.1
v -0.3 0 0.1
v -0.3 0.1 0.1
v -0.3 0.2 0.1
v -0.3 0.4 0.1
v -0.3 0.5 0.1
v -0.3 0.6 0.1
v -0.3 0.8 0.1
v -0.3 0.9 0.1
v -0.3 1 0.1
v -0.3 1.2 0.1
v -0.3 1.3 0.1
v -0.3 1.4 0.1
v -0.2 0.1 0.1
v -0.2 0.2 0.1
v -0.2 1.3 0.1
v -0.2 1.4 0.1
v -0.1 0.1 0.1
v -0.1 0.2 0.1
v -0.1 1.3 0.1
v -0.1 1.4 0.1
v 0 0.9 0.1
v 0 1 0.1
v 0.1 0.9 0.1
v 0.1 1 0.1
v 0.2 0.9 0.1
v 0.2 1 0.1
v 0.3 0 0.1
v 0.3 0.1 0.1
v 0.3 0.2 0.1
v 0.3 0.4 0.1
v 0.3 0.5 0.1
v 0.3 0.6 0.1
v 0.3 0.8 0.1
v 0.3 0.9 0.1
v 0.3 1.2 0.1
v 0.3 1.3 0.1
v 0.3 1.4 0.1
v 0.4 0 0.1
v 0.4 0.1 0.1
v 0.4 0.2 0.1
v 0.4 0.3 0.1
v 0.4 0.4 0.1
v 0.4 0.5 0.1
v 0.4 0.6 0.1
v 0.4 0.7 0.1
v 0.4 0.8 0.1
v 0.4 0.9 0.1
v 0.4 1 0.1
v 0.4 1.1 0.1
v 0.4 1.2 0.1
v 0.4 1.3 0.1
v 0.4 1.4 0.1
v 0.4 1.5 0.1
v 0.5 0 0.1
v 0.5 0.1 0.1
v 0.5 0.2 0.1
v 0.5 0.3 0.1
v 0.5 0.4 0.1
v 0.5 0.5 0.1
v 0.5 0.6 0.1
v 0.5 0.7 0.1
v 0.5 0.8 0.1
v 0.5 0.9 0.1
v 0.5 1 0.1
v 0.5 1.1 0.1
v 0.5 1.2 0.1
v 0.5 1.3 0.1
v 0.5 1.4 0.1
v 0.5 1.5 0.1
v 0.6 0.1 0.1
v 0.6 0.2 0.1
v 0.6 0.3 0.1
v 0.6 0.4 0.1
v 0.6 0.5 0.1
v 0.6 0.6 0.1
v 0.6 0.7 0.1
v 0.6 0.8 0.1
v 0.6 0.9 0.1
v 0.6 1 0.1
v 0.6 1.1 0.1
v 0.6 1.2 0.1
v 0.6 1.3 0.1
v 0.6 1.4 0.1
v 0.6 1.5 0.1
v 0.7 0 0.1
v 0.7 0.1 0.1
v 0.7 0.2 0.1
v 0.7 0.4 0.1
v 0.7 0.5 0.1
v 0.7 0.6 0.1
v 0.7 0.8 0.1
v 0.7 0.9 0.1
v 0.7 1 0.1
v 0.7 1.2 0.1
v 0.7 1.3 0.1
v 0.7 1.4 0.1
v -0.7 0 0
v -0.7 0.1 0
v -0.7 0.2 0
v -0.7 0.4 0
v -0.7 0.5 0
v -0.7 0.6 0
v -0.7 0.8 0
v -0.7 0.9 0
v -0.7 1 0
v -0.7 1.2 0
v -0.7 1.3 0
v -0.7 1.4 0
v -0.6 0 0
v -0.6 0.1 0
v -0.6 0.2 0
v -0.6 0.3 0
v -0.6 0.4 0
v -0.6 0.5 0
v -0.6 0.6 0
v -0.6 0.7 0
v -0.6 0.8 0
v -0.6 0.9 0
v -0.6 1 0
v -0.6 1.1 0
v -0.6 1.2 0
v -0.6 1.3 0
v -0.6 1.4 0
v -0.6 1.5 0
v -0.5 0 0
v -0.5 0.1 0
v -0.5 0.2 0
v -0.5 0.3 0
v -0.5 0.4 0
v -0.5 0.5 0
v -0.5 0.6 0
v -0.5 0.7 0
v -0.5 0.8 0
v -0.5 0.9 0
v -0.5 1 0
v -0.5 1.1 0
v -0.5 1.2 0
v -0.5 1.3 0
v -0.5 1.4 0
v -0.5 1.5 0
v -0.4 0 0
v -0.4 0.1 0
v -0.4 0.2 0
v -0.4 0.3 0
v -0.4 0.4 0
v -0.4 0.5 0
v -0.4 0.6 0
v -0.4 0.7 0
v -0.4 0.8 0
v -0.4 0.9 0
v -0.4 1 0
v -0.4 1.1 0
v -0.4 1.2 0
v -0.4 1.3 0
v -0.4 1.4 0
v -0.4 1.5 0
v -0.3 0 0
v -0.3 0.1 0
v -0.3 0.2 0
v -0.3 0.4 0
v -0.3 0.5 0
v -0.3 0.6 0
v -0.3 0.8 0
v -0.3 0.9 0
v -0.3 1 0
v -0.3 1.2 0
v -0.3 1.3 0
v -0.3 1.4 0
v -0.2 0.1 0
v -0.2 0.2 0
v -0.2 1.3 0
v -0.2 1.4 0
v -0.1 0.1 0
v -0.1 0.2 0
v -0.1 1.3 0
v -0.1 1.4 0
v 0 0.9 0
v 0 1 0
v 0.1 0.9 0
v 0.1 1 0
v 0.2 0.9 0
v 0.2 1 0
v 0.3 0 0
v 0.3 0.1 0
v 0.3 0.2 0
v 0.3 0.4 0
v 0.3 0.5 0
v 0.3 0.6 0
v 0.3 0.8 0
v 0.3 0.9 0
v 0.3 1.2 0
v 0.3 1.3 0
v 0.3 1.4 0
v 0.4 0 0
v 0.4 0.1 0
v 0.4 0.2 0
v 0.4 0.3 0
v 0.4 0.4 0
v 0.4 0.5 0
v 0.4 0.6 0
v 0.4 0.7 0
v 0.4 0.8 0
v 0.4 0.9 0
v 0.4 1 0
v 0.4 1.1 0
v 0.4 1.2 0
v 0.4 1.3 0
v 0.4 1.4 0
v 0.4 1.5 0
v 0.5 0 0
v 0.5 0.1 0
v 0.5 0.2 0
v 0.5 0.3 0
v 0.5 0.4 0
v 0.5 0.5 0
v 0.5 0.6 0
v 0.5 0.7 0
v 0.5 0.8 0
v 0.5 0.9 0
v 0.5 1 0
v 0.5 1.1 0
v 0.5 1.2 0
v 0.5 1.3 0
v 0.5 1.4 0
v 0.5 1.5 0
v 0.6 0.1 0
v 0.6 0.2 0
v 0.6 0.3 0
v 0.6 0.4 0
v 0.6 0.5 0
v 0.6 0.6 0
v 0.6 0.7 0
v 0.6 0.8 0
v 0.6 0.9 0
v 0.6 1 0
v 0.6 1.1 0
v 0.6 1.2 0
v 0.6 1.3 0
v 0.6 1.4 0
v 0.6 1.5 0
v 0.7 0 0
v 0.7 0.1 0
v 0.7 0.2 0
v 0.7 0.4 0
v 0.7 0.5 0
v 0.7 0.6 0
v 0.7 0.8 0
v 0.7 0.9 0
v 0.7 1 0
v 0.7 1.2 0
v 0.7 1.3 0
v 0.7 1.4 0
v -0.7 0 0.1
v -0.6 0 0.1
v -0.5 0 0.1
v -0.4 0 0.1
v -0.3 0 0.1
v 0.3 0 0.1
v 0.4 0 0.1
v 0.5 0 0.1
v 0.7 0 0.1
v -0.7 0 0
v -0.6 0 0
v -0.5 0 0
v -0.4 0 0
v -0.3 0 0
v 0.3 0 0
v 0.4 0 0
v 0.5 0 0
v 0.7 0 0
v -0.7 0.4 0.1
v -0.6 0.4 0.1
v -0.4 0.4 0.1
v -0.3 0.4 0.1
v 0.3 0.4 0.1
v 0.4 0.4 0.1
v 0.6 0.4 0.1
v 0.7 0.4 0.1
v -0.7 0.4 0
v -0.6 0.4 0
v -0.4 0.4 0
v -0.3 0.4 0
v 0.3 0.4 0
v 0.4 0.4 0
v 0.6 0.4 0
v 0.7 0.4 0
v -0.7 0.8 0.1
v -0.6 0.8 0.1
v -0.4 0.8 0.1
v -0.3 0.8 0.1
v 0.3 0.8 0.1
v 0.4 0.8 0.1
v 0.6 0.8 0.1
v 0.7 0.8 0.1
v -0.7 0.8 0
v -0.6 0.8 0
v -0.4 0.8 0
v -0.3 0.8 0
v 0.3 0.8 0
v 0.4 0.8 0
v 0.6 0.8 0
v 0.7 0.8 0
v -0.7 1.2 0.1
v -0.6 1.2 0.1
v -0.4 1.2 0.1
v -0.3 1.2 0.1
v 0.3 1.2 0.1
v 0.4 1.2 0.1
v 0.6 1.2 0.1
v 0.7 1.2 0.1
v -0.7 1.2 0
v -0.6 1.2 0
v -0.4 1.2 0
v -0.3 1.2 0
v 0.3 1.2 0
v 0.4 1.2 0
v 0.6 1.2 0
v 0.7 1.2 0
v -0.7 0.2 0.1
v -0.6 0.2 0.1
v -0.4 0.2 0.1
v -0.3 0.2 0.1
v -0.2 0.2 0.1
v -0.1 0.2 0.1
v 0.3 0.2 0.1
v 0.4 0.2 0.1
v 0.6 0.2 0.1
v 0.7 0.2 0.1
v -0.7 0.2 0
v -0.6 0.2 0
v -0.4 0.2 0
v -0.3 0.2 0
v -0.2 0.2 0
v -0.1 0.2 0
v 0.3 0.2 0
v 0.4 0.2 0
v 0.6 0.2 0
v 0.7 0.2 0
v -0.7 0.6 0.1
v -0.6 0.6 0.1
v -0.4 0.6 0.1
v -0.3 0.6 0.1
v 0.3 0.6 0.1
v 0.4 0.6 0.1
v 0.6 0.6 0.1
v 0.7 0.6 0.1
v -0.7 0.6 0
v -0.6 0.6 0
v -0.4 0.6 0
v -0.3 0.6 0
v 0.3 0.6 0
v 0.4 0.6 0
v 0.6 0.6 0
v 0.7 0.6 0
v -0.7 1 0.1
v -0.6 1 0.1
v -0.4 1 0.1
v -0.3 1 0.1
v 0 1 0.1
v 0.1 1 0.1
v 0.2 1 0.1
v 0.4 1 0.1
v 0.6 1 0.1
v 0.7 1 0.1
v -0.7 1 0
v -0.6 1 0
v -0.4 1 0
v -0.3 1 0
v 0 1 0
v 0.1 1 0
v 0.2 1 0
v 0.4 1 0
v 0.6 1 0
v 0.7 1 0
v -0.7 1.4 0.1
v -0.6 1.4 0.1
v -0.4 1.4 0.1
v -0.3 1.4 0.1
v -0.2 1.4 0.1
v -0.1 1.4 0.1
v 0.3 1.4 0.1
v 0.4 1.4 0.1
v 0.6 1.4 0.1
v 0.7 1.4 0.1
v -0.7 1.4 0
v -0.6 1.4 0
v -0.4 1.4 0
v -0.3 1.4 0
v -0.2 1.4 0
v -0.1 1.4 0
v 0.3 1.4 0
v 0.4 1.4 0
v 0.6 1.4 0
v 0.7 1.4 0
v -0.6 1.5 0.1
v -0.5 1.5 0.1
v -0.4 1.5 0.1
v 0.4 1.5 0.1
v 0.5 1.5 0.1
v 0.6 1.5 0.1
v -0.6 1.5 0
v -0.5 1.5 0
v -0.4 1.5 0
v 0.4 1.5 0
v 0.5 1.5 0
v 0.6 1.5 0

# faces
f 3/5/1 2/5/1 1/5/1
f 4/5/1 2/5/1 3/5/1
f 5/3/1 4/3/1 3/3/1
f 6/3/1 4/3/1 5/3/1
f 9/5/1 8/5/1 7/5/1
f 10/5/1 8/5/1 9/5/1
f 11/3/1 10/3/1 9/3/1
f 12/3/1 10/3/1 11/3/1
f 15/5/1 14/5/1 13/5/1
f 16/5/1 14/5/1 15/5/1
f 17/3/1 16/3/1 15/3/1
f 18/3/1 16/3/1 17/3/1
f 21/5/1 20/5/1 19/5/1
f 22/5/1 20/5/1 21/5/1
f 23/3/1 22/3/1 21/3/1
f 24/3/1 22/3/1 23/3/1
f 27/2/1 26/2/1 25/2/1
f 28/2/1 26/2/1 27/2/1
f 29/1/1 28/1/1 27/1/1
f 30/1/1 28/1/1 29/1/1
f 33/2/1 32/2/1 31/2/1
f 34/2/1 32/2/1 33/2/1
f 35/1/1 34/1/1 33/1/1
f 36/1/1 34/1/1 35/1/1
f 39/2/1 38/2/1 37/2/1
f 40/2/1 38/2/1 39/2/1
f 41/1/1 40/1/1 39/1/1
f 42/1/1 40/1/1 41/1/1
f 45/2/1 44/2/1 43/2/1
f 46/2/1 44/2/1 45/2/1
f 49/2/1 48/2/1 47/2/1
f 50/2/1 48/2/1 49/2/1
f 51/1/1 50/1/1 49/1/1
f 52/1/1 50/1/1 51/1/1
f 55/2/1 54/2/1 53/2/1
f 56/2/1 54/2/1 55/2/1
f 57/1/1 56/1/1 55/1/1
f 58/1/1 56/1/1 57/1/1
f 61/2/1 60/2/1 59/2/1
f 62/2/1 60/2/1 61/2/1
f 63/1/1 62/1/1 61/1/1
f 64/1/1 62/1/1 63/1/1
f 67/2/1 66/2/1 65/2/1
f 68/2/1 66/2/1 67/2/1
f 69/1/2 70/1/2 71/1/2
f 71/1/2 70/1/2 72/1/2
f 71/6/2 72/6/2 73/6/2
f 73/6/2 72/6/2 74/6/2
f 75/1/2 76/1/2 77/1/2
f 77/1/2 76/1/2 78/1/2
f 77/6/2 78/6/2 79/6/2
f 79/6/2 78/6/2 80/6/2
f 81/1/2 82/1/2 83/1/2
f 83/1/2 82/1/2 84/1/2
f 83/6/2 84/6/2 85/6/2
f 85/6/2 84/6/2 86/6/2
f 87/1/2 88/1/2 89/1/2
f 89/1/2 88/1/2 90/1/2
f 91/1/2 92/1/2 93/1/2
f 93/1/2 92/1/2 94/1/2
f 93/6/2 94/6/2 95/6/2
f 95/6/2 94/6/2 96/6/2
f 97/1/2 98/1/2 99/1/2
f 99/1/2 98/1/2 100/1/2
f 99/6/2 100/6/2 101/6/2
f 101/6/2 100/6/2 102/6/2
f 103/1/2 104/1/2 105/1/2
f 105/1/2 104/1/2 106/1/2
f 105/6/2 106/6/2 107/6/2
f 107/6/2 106/6/2 108/6/2
f 109/1/2 110/1/2 111/1/2
f 111/1/2 110/1/2 112/1/2
f 113/5/2 114/5/2 115/5/2
f 115/5/2 114/5/2 116/5/2
f 115/4/2 116/4/2 117/4/2
f 117/4/2 116/4/2 118/4/2
f 119/5/2 120/5/2 121/5/2
f 121/5/2 120/5/2 122/5/2
f 121/4/2 122/4/2 123/4/2
f 123/4/2 122/4/2 124/4/2
f 125/5/2 126/5/2 127/5/2
f 127/5/2 126/5/2 128/5/2
f 127/4/2 128/4/2 129/4/2
f 129/4/2 128/4/2 130/4/2
f 131/5/2 132/5/2 133/5/2
f 133/5/2 132/5/2 134/5/2
f 133/4/2 134/4/2 135/4/2
f 135/4/2 134/4/2 136/4/2
f 149/5/3 138/5/3 137/5/3
f 150/3/3 139/3/3 138/3/3
f 150/5/3 138/5/3 149/5/3
f 151/3/3 139/3/3 150/3/3
f 153/5/3 141/5/3 140/5/3
f 154/3/3 142/3/3 141/3/3
f 154/5/3 141/5/3 153/5/3
f 155/3/3 142/3/3 154/3/3
f 157/5/3 144/5/3 143/5/3
f 158/3/3 145/3/3 144/3/3
f 158/5/3 144/5/3 157/5/3
f 159/3/3 145/3/3 158/3/3
f 161/5/3 147/5/3 146/5/3
f 162/3/3 148/3/3 147/3/3
f 162/5/3 147/5/3 161/5/3
f 163/3/3 148/3/3 162/3/3
f 165/3/3 150/3/3 149/3/3
f 166/4/3 151/4/3 150/4/3
f 166/3/3 150/3/3 165/3/3
f 167/2/3 152/2/3 151/2/3
f 167/4/3 151/4/3 166/4/3
f 168/1/3 153/1/3 152/1/3
f 168/2/3 152/2/3 167/2/3
f 169/3/3 154/3/3 153/3/3
f 169/1/3 153/1/3 168/1/3
f 170/4/3 155/4/3 154/4/3
f 170/3/3 154/3/3 169/3/3
f 171/2/3 156/2/3 155/2/3
f 171/4/3 155/4/3 170/4/3
f 172/1/3 157/1/3 156/1/3
f 172/2/3 156/2/3 171/2/3
f 173/3/3 158/3/3 157/3/3
f 173/1/3 157/1/3 172/1/3
f 174/4/3 159/4/3 158/4/3
f 174/3/3 158/3/3 173/3/3
f 175/2/3 160/2/3 159/2/3
f 175/4/3 159/4/3 174/4/3
f 176/1/3 161/1/3 160/1/3
f 176/2/3 160/2/3 175/2/3
f 177/3/3 162/3/3 161/3/3
f 177/1/3 161/1/3 176/1/3
f 178/4/3 163/4/3 162/4/3
f 178/3/3 162/3/3 177/3/3
f 179/2/3 164/2/3 163/2/3
f 179/4/3 163/4/3 178/4/3
f 180/2/3 164/2/3 179/2/3
f 181/5/3 166/5/3 165/5/3
f 182/3/3 167/3/3 166/3/3
f 182/5/3 166/5/3 181/5/3
f 183/1/3 168/1/3 167/1/3
f 183/3/3 167/3/3 182/3/3
f 184/6/3 169/6/3 168/6/3
f 184/1/3 168/1/3 183/1/3
f 185/5/3 170/5/3 169/5/3
f 185/6/3 169/6/3 184/6/3
f 186/3/3 171/3/3 170/3/3
f 186/5/3 170/5/3 185/5/3
f 187/1/3 172/1/3 171/1/3
f 187/3/3 171/3/3 186/3/3
f 188/6/3 173/6/3 172/6/3
f 188/1/3 172/1/3 187/1/3
f 189/5/3 174/5/3 173/5/3
f 189/6/3 173/6/3 188/6/3
f 190/3/3 175/3/3 174/3/3
f 190/5/3 174/5/3 189/5/3
f 191/1/3 176/1/3 175/1/3
f 191/3/3 175/3/3 190/3/3
f 192/6/3 177/6/3 176/6/3
f 192/1/3 176/1/3 191/1/3
f 193/5/3 178/5/3 177/5/3
f 193/6/3 177/6/3 192/6/3
f 194/3/3 179/3/3 178/3/3
f 194/5/3 178/5/3 193/5/3
f 195/1/3 180/1/3 179/1/3
f 195/3/3 179/3/3 194/3/3
f 196/1/3 180/1/3 195/1/3
f 197/1/3 182/1/3 181/1/3
f 198/2/3 183/2/3 182/2/3
f 198/1/3 182/1/3 197/1/3
f 199/2/3 183/2/3 198/2/3
f 200/1/3 186/1/3 185/1/3
f 201/2/3 187/2/3 186/2/3
f 201/1/3 186/1/3 200/1/3
f 202/2/3 187/2/3 201/2/3
f 203/1/3 190/1/3 189/1/3
f 204/2/3 191/2/3 190/2/3
f 204/1/3 190/1/3 203/1/3
f 205/2/3 191/2/3 204/2/3
f 206/1/3 194/1/3 193/1/3
f 207/2/3 195/2/3 194/2/3
f 207/1/3 194/1/3 206/1/3
f 208/2/3 195/2/3 207/2/3
f 209/4/3 199/4/3 198/4/3
f 209/5/3 198/5/3 197/5/3
f 210/4/3 199/4/3 209/4/3
f 211/4/3 208/4/3 207/4/3
f 211/5/3 207/5/3 206/5/3
f 212/4/3 208/4/3 211/4/3
f 213/2/3 210/2/3 209/2/3
f 213/5/3 209/5/3 197/5/3
f 214/2/3 210/2/3 213/2/3
f 215/2/3 212/2/3 211/2/3
f 215/5/3 211/5/3 206/5/3
f 216/2/3 212/2/3 215/2/3
f 217/4/3 205/4/3 204/4/3
f 217/5/3 204/5/3 203/5/3
f 218/4/3 205/4/3 217/4/3
f 219/5/3 217/5/3 203/5/3
f 219/2/3 218/2/3 217/2/3
f 220/2/3 218/2/3 219/2/3
f 221/5/3 219/5/3 203/5/3
f 221/4/3 220/4/3 219/4/3
f 222/4/3 220/4/3 221/4/3
f 223/5/3 213/5/3 197/5/3
f 224/4/3 214/4/3 213/4/3
f 224/5/3 213/5/3 223/5/3
f 225/4/3 214/4/3 224/4/3
f 226/5/3 201/5/3 200/5/3
f 227/4/3 202/4/3 201/4/3
f 227/5/3 201/5/3 226/5/3
f 228/4/3 202/4/3 227/4/3
f 229/5/3 221/5/3 203/5/3
f 230/2/3 222/2/3 221/2/3
f 230/5/3 221/5/3 229/5/3
f 231/5/3 215/5/3 206/5/3
f 232/4/3 216/4/3 215/4/3
f 232/5/3 215/5/3 231/5/3
f 233/4/3 216/4/3 232/4/3
f 234/1/3 224/1/3 223/1/3
f 235/2/3 225/2/3 224/2/3
f 235/1/3 224/1/3 234/1/3
f 236/2/3 225/2/3 235/2/3
f 238/1/3 227/1/3 226/1/3
f 239/2/3 228/2/3 227/2/3
f 239/1/3 227/1/3 238/1/3
f 240/2/3 228/2/3 239/2/3
f 242/1/3 230/1/3 229/1/3
f 243/2/3 222/2/3 230/2/3
f 243/1/3 230/1/3 242/1/3
f 244/2/3 222/2/3 243/2/3
f 246/1/3 232/1/3 231/1/3
f 247/2/3 233/2/3 232/2/3
f 247/1/3 232/1/3 246/1/3
f 248/2/3 233/2/3 247/2/3
f 250/3/3 235/3/3 234/3/3
f 251/4/3 236/4/3 235/4/3
f 251/3/3 235/3/3 250/3/3
f 252/2/3 237/2/3 236/2/3
f 252/4/3 236/4/3 251/4/3
f 253/1/3 238/1/3 237/1/3
f 253/2/3 237/2/3 252/2/3
f 254/3/3 239/3/3 238/3/3
f 254/1/3 238/1/3 253/1/3
f 255/4/3 240/4/3 239/4/3
f 255/3/3 239/3/3 254/3/3
f 256/2/3 241/2/3 240/2/3
f 256/4/3 240/4/3 255/4/3
f 257/1/3 242/1/3 241/1/3
f 257/2/3 241/2/3 256/2/3
f 258/3/3 243/3/3 242/3/3
f 258/1/3 242/1/3 257/1/3
f 259/4/3 244/4/3 243/4/3
f 259/3/3 243/3/3 258/3/3
f 260/2/3 245/2/3 244/2/3
f 260/4/3 244/4/3 259/4/3
f 261/1/3 246/1/3 245/1/3
f 261/2/3 245/2/3 260/2/3
f 262/3/3 247/3/3 246/3/3
f 262/1/3 246/1/3 261/1/3
f 263/4/3 248/4/3 247/4/3
f 263/3/3 247/3/3 262/3/3
f 264/2/3 249/2/3 248/2/3
f 264/4/3 248/4/3 263/4/3
f 265/2/3 249/2/3 264/2/3
f 266/5/3 251/5/3 250/5/3
f 266/3/3 252/3/3 251/3/3
f 267/1/3 253/1/3 252/1/3
f 267/3/3 252/3/3 266/3/3
f 268/6/3 254/6/3 253/6/3
f 268/1/3 253/1/3 267/1/3
f 269/5/3 255/5/3 254/5/3
f 269/6/3 254/6/3 268/6/3
f 270/3/3 256/3/3 255/3/3
f 270/5/3 255/5/3 269/5/3
f 271/1/3 257/1/3 256/1/3
f 271/3/3 256/3/3 270/3/3
f 272/6/3 258/6/3 257/6/3
f 272/1/3 257/1/3 271/1/3
f 273/5/3 259/5/3 258/5/3
f 273/6/3 258/6/3 272/6/3
f 274/3/3 260/3/3 259/3/3
f 274/5/3 259/5/3 273/5/3
f 275/1/3 261/1/3 260/1/3
f 275/3/3 260/3/3 274/3/3
f 276/6/3 262/6/3 261/6/3
f 276/1/3 261/1/3 275/1/3
f 277/5/3 263/5/3 262/5/3
f 277/6/3 262/6/3 276/6/3
f 278/3/3 264/3/3 263/3/3
f 278/5/3 263/5/3 277/5/3
f 279/1/3 265/1/3 264/1/3
f 279/3/3 264/3/3 278/3/3
f 280/1/3 265/1/3 279/1/3
f 281/5/3 266/5/3 250/5/3
f 282/4/3 267/4/3 266/4/3
f 282/5/3 266/5/3 281/5/3
f 283/4/3 267/4/3 282/4/3
f 284/5/3 270/5/3 269/5/3
f 285/4/3 271/4/3 270/4/3
f 285/5/3 270/5/3 284/5/3
f 286/4/3 271/4/3 285/4/3
f 287/5/3 274/5/3 273/5/3
f 288/4/3 275/4/3 274/4/3
f 288/5/3 274/5/3 287/5/3
f 289/4/3 275/4/3 288/4/3
f 290/5/3 278/5/3 277/5/3
f 291/4/3 279/4/3 278/4/3
f 291/5/3 278/5/3 290/5/3
f 292/4/3 279/4/3 291/4/3
f 293/5/4 294/5/4 305/5/4
f 294/3/4 295/3/4 306/3/4
f 305/5/4 294/5/4 306/5/4
f 306/3/4 295/3/4 307/3/4
f 296/5/4 297/5/4 309/5/4
f 297/3/4 298/3/4 310/3/4
f 309/5/4 297/5/4 310/5/4
f 310/3/4 298/3/4 311/3/4
f 299/5/4 300/5/4 313/5/4
f 300/3/4 301/3/4 314/3/4
f 313/5/4 300/5/4 314/5/4
f 314/3/4 301/3/4 315/3/4
f 302/5/4 303/5/4 317/5/4
f 303/3/4 304/3/4 318/3/4
f 317/5/4 303/5/4 318/5/4
f 318/3/4 304/3/4 319/3/4
f 305/3/4 306/3/4 321/3/4
f 306/4/4 307/4/4 322/4/4
f 321/3/4 306/3/4 322/3/4
f 307/2/4 308/2/4 323/2/4
f 322/4/4 307/4/4 323/4/4
f 308/1/4 309/1/4 324/1/4
f 323/2/4 308/2/4 324/2/4
f 309/3/4 310/3/4 325/3/4
f 324/1/4 309/1/4 325/1/4
f 310/4/4 311/4/4 326/4/4
f 325/3/4 310/3/4 326/3/4
f 311/2/4 312/2/4 327/2/4
f 326/4/4 311/4/4 327/4/4
f 312/1/4 313/1/4 328/1/4
f 327/2/4 312/2/4 328/2/4
f 313/3/4 314/3/4 329/3/4
f 328/1/4 313/1/4 329/1/4
f 314/4/4 315/4/4 330/4/4
f 329/3/4 314/3/4 330/3/4
f 315/2/4 316/2/4 331/2/4
f 330/4/4 315/4/4 331/4/4
f 316/1/4 317/1/4 332/1/4
f 331/2/4 316/2/4 332/2/4
f 317/3/4 318/3/4 333/3/4
f 332/1/4 317/1/4 333/1/4
f 318/4/4 319/4/4 334/4/4
f 333/3/4 318/3/4 334/3/4
f 319/2/4 320/2/4 335/2/4
f 334/4/4 319/4/4 335/4/4
f 335/2/4 320/2/4 336/2/4
f 321/5/4 322/5/4 337/5/4
f 322/3/4 323/3/4 338/3/4
f 337/5/4 322/5/4 338/5/4
f 323/1/4 324/1/4 339/1/4
f 338/3/4 323/3/4 339/3/4
f 324/6/4 325/6/4 340/6/4
f 339/1/4 324/1/4 340/1/4
f 325/5/4 326/5/4 341/5/4
f 340/6/4 325/6/4 341/6/4
f 326/3/4 327/3/4 342/3/4
f 341/5/4 326/5/4 342/5/4
f 327/1/4 328/1/4 343/1/4
f 342/3/4 327/3/4 343/3/4
f 328/6/4 329/6/4 344/6/4
f 343/1/4 328/1/4 344/1/4
f 329/5/4 330/5/4 345/5/4
f 344/6/4 329/6/4 345/6/4
f 330/3/4 331/3/4 346/3/4
f 345/5/4 330/5/4 346/5/4
f 331/1/4 332/1/4 347/1/4
f 346/3/4 331/3/4 347/3/4
f 332/6/4 333/6/4 348/6/4
f 347/1/4 332/1/4 348/1/4
f 333/5/4 334/5/4 349/5/4
f 348/6/4 333/6/4 349/6/4
f 334/3/4 335/3/4 350/3/4
f 349/5/4 334/5/4 350/5/4
f 335/1/4 336/1/4 351/1/4
f 350/3/4 335/3/4 351/3/4
f 351/1/4 336/1/4 352/1/4
f 337/1/4 338/1/4 353/1/4
f 338/2/4 339/2/4 354/2/4
f 353/1/4 338/1/4 354/1/4
f 354/2/4 339/2/4 355/2/4
f 341/1/4 342/1/4 356/1/4
f 342/2/4 343/2/4 357/2/4
f 356/1/4 342/1/4 357/1/4
f 357/2/4 343/2/4 358/2/4
f 345/1/4 346/1/4 359/1/4
f 346/2/4 347/2/4 360/2/4
f 359/1/4 346/1/4 360/1/4
f 360/2/4 347/2/4 361/2/4
f 349/1/4 350/1/4 362/1/4
f 350/2/4 351/2/4 363/2/4
f 362/1/4 350/1/4 363/1/4
f 363/2/4 351/2/4 364/2/4
f 354/4/4 355/4/4 365/4/4
f 353/5/4 354/5/4 365/5/4
f 365/4/4 355/4/4 366/4/4
f 363/4/4 364/4/4 367/4/4
f 362/5/4 363/5/4 367/5/4
f 367/4/4 364/4/4 368/4/4
f 365/2/4 366/2/4 369/2/4
f 353/5/4 365/5/4 369/5/4
f 369/2/4 366/2/4 370/2/4
f 367/2/4 368/2/4 371/2/4
f 362/5/4 367/5/4 371/5/4
f 371/2/4 368/2/4 372/2/4
f 360/4/4 361/4/4 373/4/4
f 359/5/4 360/5/4 373/5/4
f 373/4/4 361/4/4 374/4/4
f 359/5/4 373/5/4 375/5/4
f 373/2/4 374/2/4 375/2/4
f 375/2/4 374/2/4 376/2/4
f 359/5/4 375/5/4 377/5/4
f 375/4/4 376/4/4 377/4/4
f 377/4/4 376/4/4 378/4/4
f 353/5/4 369/5/4 379/5/4
f 369/4/4 370/4/4 380/4/4
f 379/5/4 369/5/4 380/5/4
f 380/4/4 370/4/4 381/4/4
f 356/5/4 357/5/4 382/5/4
f 357/4/4 358/4/4 383/4/4
f 382/5/4 357/5/4 383/5/4
f 383/4/4 358/4/4 384/4/4
f 359/5/4 377/5/4 385/5/4
f 377/2/4 378/2/4 386/2/4
f 385/5/4 377/5/4 386/5/4
f 362/5/4 371/5/4 387/5/4
f 371/4/4 372/4/4 388/4/4
f 387/5/4 371/5/4 388/5/4
f 388/4/4 372/4/4 389/4/4
f 379/1/4 380/1/4 390/1/4
f 380/2/4 381/2/4 391/2/4
f 390/1/4 380/1/4 391/1/4
f 391/2/4 381/2/4 392/2/4
f 382/1/4 383/1/4 394/1/4
f 383/2/4 384/2/4 395/2/4
f 394/1/4 383/1/4 395/1/4
f 395/2/4 384/2/4 396/2/4
f 385/1/4 386/1/4 398/1/4
f 386/2/4 378/2/4 399/2/4
f 398/1/4 386/1/4 399/1/4
f 399/2/4 378/2/4 400/2/4
f 387/1/4 388/1/4 402/1/4
f 388/2/4 389/2/4 403/2/4
f 402/1/4 388/1/4 403/1/4
f 403/2/4 389/2/4 404/2/4
f 390/3/4 391/3/4 406/3/4
f 391/4/4 392/4/4 407/4/4
f 406/3/4 391/3/4 407/3/4
f 392/2/4 393/2/4 408/2/4
f 407/4/4 392/4/4 408/4/4
f 393/1/4 394/1/4 409/1/4
f 408/2/4 393/2/4 409/2/4
f 394/3/4 395/3/4 410/3/4
f 409/1/4 394/1/4 410/1/4
f 395/4/4 396/4/4 411/4/4
f 410/3/4 395/3/4 411/3/4
f 396/2/4 397/2/4 412/2/4
f 411/4/4 396/4/4 412/4/4
f 397/1/4 398/1/4 413/1/4
f 412/2/4 397/2/4 413/2/4
f 398/3/4 399/3/4 414/3/4
f 413/1/4 398/1/4 414/1/4
f 399/4/4 400/4/4 415/4/4
f 414/3/4 399/3/4 415/3/4
f 400/2/4 401/2/4 416/2/4
f 415/4/4 400/4/4 416/4/4
f 401/1/4 402/1/4 417/1/4
f 416/2/4 401/2/4 417/2/4
f 402/3/4 403/3/4 418/3/4
f 417/1/4 402/1/4 418/1/4
f 403/4/4 404/4/4 419/4/4
f 418/3/4 403/3/4 419/3/4
f 404/2/4 405/2/4 420/2/4
f 419/4/4 404/4/4 420/4/4
f 420/2/4 405/2/4 421/2/4
f 406/5/4 407/5/4 422/5/4
f 407/3/4 408/3/4 422/3/4
f 408/1/4 409/1/4 423/1/4
f 422/3/4 408/3/4 423/3/4
f 409/6/4 410/6/4 424/6/4
f 423/1/4 409/1/4 424/1/4
f 410/5/4 411/5/4 425/5/4
f 424/6/4 410/6/4 425/6/4
f 411/3/4 412/3/4 426/3/4
f 425/5/4 411/5/4 426/5/4
f 412/1/4 413/1/4 427/1/4
f 426/3/4 412/3/4 427/3/4
f 413/6/4 414/6/4 428/6/4
f 427/1/4 413/1/4 428/1/4
f 414/5/4 415/5/4 429/5/4
f 428/6/4 414/6/4 429/6/4
f 415/3/4 416/3/4 430/3/4
f 429/5/4 415/5/4 430/5/4
f 416/1/4 417/1/4 431/1/4
f 430/3/4 416/3/4 431/3/4
f 417/6/4 418/6/4 432/6/4
f 431/1/4 417/1/4 432/1/4
f 418/5/4 419/5/4 433/5/4
f 432/6/4 418/6/4 433/6/4
f 419/3/4 420/3/4 434/3/4
f 433/5/4 419/5/4 434/5/4
f 420/1/4 421/1/4 435/1/4
f 434/3/4 420/3/4 435/3/4
f 435/1/4 421/1/4 436/1/4
f 406/5/4 422/5/4 437/5/4
f 422/4/4 423/4/4 438/4/4
f 437/5/4 422/5/4 438/5/4
f 438/4/4 423/4/4 439/4/4
f 425/5/4 426/5/4 440/5/4
f 426/4/4 427/4/4 441/4/4
f 440/5/4 426/5/4 441/5/4
f 441/4/4 427/4/4 442/4/4
f 429/5/4 430/5/4 443/5/4
f 430/4/4 431/4/4 444/4/4
f 443/5/4 430/5/4 444/5/4
f 444/4/4 431/4/4 445/4/4
f 433/5/4 434/5/4 446/5/4
f 434/4/4 435/4/4 447/4/4
f 446/5/4 434/5/4 447/5/4
f 447/4/4 435/4/4 448/4/4
f 458/5/5 450/5/5 449/5/5
f 459/3/5 451/3/5 450/3/5
f 459/5/5 450/5/5 458/5/5
f 460/5/5 452/5/5 451/5/5
f 460/3/5 451/3/5 459/3/5
f 461/1/5 453/1/5 452/1/5
f 461/5/5 452/5/5 460/5/5
f 462/5/5 454/5/5 453/5/5
f 462/1/5 453/1/5 461/1/5
f 463/1/5 455/1/5 454/1/5
f 463/5/5 454/5/5 462/5/5
f 464/3/5 456/3/5 455/3/5
f 464/1/5 455/1/5 463/1/5
f 465/5/5 457/5/5 456/5/5
f 465/3/5 456/3/5 464/3/5
f 466/5/5 457/5/5 465/5/5
f 475/5/5 468/5/5 467/5/5
f 476/5/5 468/5/5 475/5/5
f 477/1/5 470/1/5 469/1/5
f 478/5/5 471/5/5 470/5/5
f 478/1/5 470/1/5 477/1/5
f 479/1/5 472/1/5 471/1/5
f 479/5/5 471/5/5 478/5/5
f 480/1/5 472/1/5 479/1/5
f 481/5/5 474/5/5 473/5/5
f 482/5/5 474/5/5 481/5/5
f 491/5/5 484/5/5 483/5/5
f 492/5/5 484/5/5 491/5/5
f 493/1/5 486/1/5 485/1/5
f 494/5/5 487/5/5 486/5/5
f 494/1/5 486/1/5 493/1/5
f 495/1/5 488/1/5 487/1/5
f 495/5/5 487/5/5 494/5/5
f 496/1/5 488/1/5 495/1/5
f 497/5/5 490/5/5 489/5/5
f 498/5/5 490/5/5 497/5/5
f 507/5/5 500/5/5 499/5/5
f 508/5/5 500/5/5 507/5/5
f 509/1/5 502/1/5 501/1/5
f 510/5/5 503/5/5 502/5/5
f 510/1/5 502/1/5 509/1/5
f 511/1/5 504/1/5 503/1/5
f 511/5/5 503/5/5 510/5/5
f 512/1/5 504/1/5 511/1/5
f 513/5/5 506/5/5 505/5/5
f 514/5/5 506/5/5 513/5/5
f 515/3/6 516/3/6 525/3/6
f 525/3/6 516/3/6 526/3/6
f 517/2/6 518/2/6 527/2/6
f 518/4/6 519/4/6 528/4/6
f 527/2/6 518/2/6 528/2/6
f 519/2/6 520/2/6 529/2/6
f 528/4/6 519/4/6 529/4/6
f 520/4/6 521/4/6 530/4/6
f 529/2/6 520/2/6 530/2/6
f 521/2/6 522/2/6 531/2/6
f 530/4/6 521/4/6 531/4/6
f 531/2/6 522/2/6 532/2/6
f 523/4/6 524/4/6 533/4/6
f 533/4/6 524/4/6 534/4/6
f 535/3/6 536/3/6 543/3/6
f 543/3/6 536/3/6 544/3/6
f 537/2/6 538/2/6 545/2/6
f 538/4/6 539/4/6 546/4/6
f 545/2/6 538/2/6 546/2/6
f 539/2/6 540/2/6 547/2/6
f 546/4/6 539/4/6 547/4/6
f 547/2/6 540/2/6 548/2/6
f 541/4/6 542/4/6 549/4/6
f 549/4/6 542/4/6 550/4/6
f 551/3/6 552/3/6 561/3/6
f 561/3/6 552/3/6 562/3/6
f 553/2/6 554/2/6 563/2/6
f 554/4/6 555/4/6 564/4/6
f 563/2/6 554/2/6 564/2/6
f 555/2/6 556/2/6 565/2/6
f 564/4/6 555/4/6 565/4/6
f 556/4/6 557/4/6 566/4/6
f 565/2/6 556/2/6 566/2/6
f 557/2/6 558/2/6 567/2/6
f 566/4/6 557/4/6 567/4/6
f 567/2/6 558/2/6 568/2/6
f 559/4/6 560/4/6 569/4/6
f 569/4/6 560/4/6 570/4/6
f 571/3/6 572/3/6 581/3/6
f 581/3/6 572/3/6 582/3/6
f 573/2/6 574/2/6 583/2/6
f 574/4/6 575/4/6 584/4/6
f 583/2/6 574/2/6 584/2/6
f 575/2/6 576/2/6 585/2/6
f 584/4/6 575/4/6 585/4/6
f 576/4/6 577/4/6 586/4/6
f 585/2/6 576/2/6 586/2/6
f 577/2/6 578/2/6 587/2/6
f 586/4/6 577/4/6 587/4/6
f 587/2/6 578/2/6 588/2/6
f 579/4/6 580/4/6 589/4/6
f 589/4/6 580/4/6 590/4/6
f 591/2/6 592/2/6 597/2/6
f 592/1/6 593/1/6 598/1/6
f 597/2/6 592/2/6 598/2/6
f 598/1/6 593/1/6 599/1/6
f 594/2/6 595/2/6 600/2/6
f 595/1/6 596/1/6 601/1/6
f 600/2/6 595/2/6 601/2/6
f 601/1/6 596/1/6 602/1/6
