# Wavefront OBJ file made by Mineways version 9.17, http://mineways.com
# World: New World
# Terrain file name: C:\Users\kevin\Downloads\minewaysV1000\mineways\terrainExt.png
# Color scheme: Standard
# Mon Jun 13 16:00:37 2022

# Selection location min to max: 48, -63, -45 to 48, 319, -45
#   Non-empty selection location min to max: 48, -63, -45 to 48, -63, -45

# Set render type: Wavefront OBJ relative indices
# Units for the model vertex data itself: meters

# 24 vertices, 16 faces (32 triangles), 0 blocks, 14 billboards/bits
# block dimensions: X=2 by Y=2 (height) by Z=2 blocks
# Elevation shading: no
# Lighting: no
# Transparent water: no
# Map grid: no
# File type: Export all textures to three large images
# Texture output RGB: YES
# Texture output A: YES
# Texture output RGBA: YES
# OBJ relative coordinates
# Make groups objects: no
# Export separate objects: YES
# Individual blocks: no
#   Material per family: YES
#   Split by block type: YES
# G3D full material: YES
# Make Z the up direction instead of Y: no
# Create composite overlay faces: no
# Center model: YES
# Export lesser blocks: YES
# Fatten lesser blocks: no
# Create block faces at the borders: YES
# Make tree leaves solid: no
# Use biomes: no
# Rotate model 0.000000 degrees
# Scale model by making each block 1000 mm high
# Data operation options:
#   Fill air bubbles: no; Seal off entrances: no; Fill in isolated tunnels in base of model: no
#   Connect parts sharing an edge: no; Connect corner tips: no; Weld all shared edges: no
#   Delete floating objects: trees and parts smaller than 16 blocks: no
#   Hollow out bottom of model, making the walls 1000 mm thick: no; Superhollow: no
# Melt snow blocks: no
#   Debug: show separate parts as colors: no
#   Debug: show weld blocks in bright colors: no

# Full world path: C:\Users\kevin\AppData\Roaming\.minecraft\saves\New World
# Full terrainExt.png path: C:\Users\kevin\Downloads\minewaysV1000\mineways\terrainExt.png
# Full current path: C:\Users\kevin\Downloads\minewaysV1000\mineways

mtllib Mineways2Skfb.mtl

o New_World__48_-63_-45_to_48_319_-45
vn -1 0 0
vn 0 -1 0
vn 0 0 -1
vn 1 0 0
vn 0 1 0
vn 0 0 1
vn -0.707107 0 -0.707107
vn -0.707107 0 0.707107
vn 0.707107 0 -0.707107
vn 0.707107 0 0.707107
vn -0.707107 -0.707107 0
vn 0 -0.707107 -0.707107
vn 0.707107 -0.707107 0
vn 0 -0.707107 0.707107
vn -0.707107 0.707107 0
vn 0 0.707107 -0.707107
vn 0.707107 0.707107 0
vn 0 0.707107 0.707107
vn -0.92388 0 -0.382683
vn -0.92388 0 0.382683
vn 0.92388 0 -0.382683
vn 0.92388 0 0.382683
vn -0.382683 0 -0.92388
vn -0.382683 0 0.92388
vn 0.382683 0 -0.92388
vn 0.382683 0 0.92388
vn -0.397273 0.9177 0
vn 0.397273 -0.9177 0
vn 0.397273 0.9177 0
vn -0.397273 -0.9177 0
vn 0 0.9177 -0.397273
vn 0 -0.9177 0.397273
vn 0 0.9177 0.397273
vn 0 -0.9177 -0.397273
vn -0.440932 0.897541 0
vn 0.440932 -0.897541 0
vn 0.440932 0.897541 0
vn -0.440932 -0.897541 0
vn 0 0.897541 -0.440932
vn 0 -0.897541 0.440932
vn 0 0.897541 0.440932
vn 0 -0.897541 -0.440932
vn 0 -0.382683 0.92388
vn 0 0.382683 -0.92388
# lectern_base
vt 0.458007812 0.803710938
vt 0.473632812 0.803710938
vt 0.473632812 0.805664062
vt 0.458007812 0.805664062
vt 0.458007812 0.795898438
vt 0.473632812 0.795898438
vt 0.473632812 0.797851562
vt 0.458007812 0.797851562
vt 0.458007812 0.790039062
vt 0.473632812 0.790039062
vt 0.473632812 0.791992188
vt 0.458007812 0.791992188
# oak_planks
vt 0.071289062 0.983398438
vt 0.086914062 0.983398438
vt 0.086914062 0.999023438
vt 0.071289062 0.999023438
# lectern_front
vt 0.475585938 0.792968750
vt 0.483398438 0.792968750
vt 0.483398438 0.804687500
vt 0.475585938 0.804687500
vt 0.483398438 0.790039062
vt 0.491210938 0.790039062
vt 0.491210938 0.801757812
vt 0.483398438 0.801757812
# lectern_sides
vt 0.444335938 0.790039062
vt 0.456054688 0.790039062
vt 0.456054688 0.797851562
vt 0.444335938 0.797851562
vt 0.443359375 0.790039062
vt 0.455078125 0.790039062
vt 0.455078125 0.797851562
vt 0.443359375 0.797851562
vt 0.440429688 0.801757812
vt 0.456054688 0.801757812
vt 0.456054688 0.805664062
vt 0.440429688 0.805664062
vt 0.443359375 0.801757812
vt 0.440429688 0.797851562
# lectern_top
vt 0.422851562 0.791015625
vt 0.438476562 0.791015625
vt 0.438476562 0.803710938
vt 0.422851562 0.803710938
# oak_planks
vt 0.071289062 0.984375000
vt 0.086914062 0.984375000
vt 0.086914062 0.997070312
vt 0.071289062 0.997070312
v 0 0 0.5
v 0.5 0 0.5
v 0 0.0625 0.5
v 0.5 0.0625 0.5
v 0 0 0
v 0.5 0 0
v 0 0.0625 0
v 0.5 0.0625 0
v 0.125 0.0625 0.125
v 0.125 0.0625 0.375
v 0.125 0.4375 0.125
v 0.125 0.4375 0.375
v 0.375 0.0625 0.125
v 0.375 0.0625 0.375
v 0.375 0.4375 0.125
v 0.375 0.4375 0.375
v 0 0.274441 0.442192
v 0.5 0.274441 0.442192
v 0 0.389926 0.490027
v 0.5 0.389926 0.490027
v 0 0.429906 0.0668655
v 0.5 0.429906 0.0668655
v 0 0.545391 0.114701
v 0.5 0.545391 0.114701

g Lectern
usemtl Lectern
f -18/-44/-44 -20/-45/-44 -24/-46/-44 -22/-43/-44
f -17/-40/-41 -21/-39/-41 -23/-42/-41 -19/-41/-41
f -21/-35/-39 -22/-36/-39 -24/-37/-39 -23/-38/-39
f -17/-39/-42 -19/-42/-42 -20/-41/-42 -18/-40/-42
f -18/-43/-40 -22/-38/-40 -21/-37/-40 -17/-44/-40
f -23/-31/-43 -24/-32/-43 -20/-33/-43 -19/-34/-43
f -9/-28/-39 -13/-27/-39 -15/-30/-39 -11/-29/-39
f -10/-24/-42 -12/-25/-42 -16/-26/-42 -14/-23/-42
f -14/-19/-44 -16/-20/-44 -15/-21/-44 -13/-22/-44
f -10/-15/-41 -9/-18/-41 -11/-17/-41 -12/-16/-41
f -5/-11/-2 -6/-12/-2 -8/-13/-2 -7/-14/-2
f -2/-13/-44 -4/-20/-44 -8/-15/-44 -6/-10/-44
f -1/-14/-1 -3/-9/-1 -4/-20/-1 -2/-13/-1
f -1/-13/-41 -5/-10/-41 -7/-15/-41 -3/-20/-41
f -2/-5/-12 -6/-8/-12 -5/-7/-12 -1/-6/-12
f -7/-1/-11 -8/-2/-11 -4/-3/-11 -3/-4/-11
